HIERARCHY
ROOT Hips
{
	OFFSET 0.000000 0.000000 0.000000
	CHANNELS 6 Xposition Yposition Zposition Zrotation Yrotation Xrotation 
	JOINT LowerBack
	{
		OFFSET 0.000000 0.000000 0.000000
		CHANNELS 3 Zrotation Yrotation Xrotation
		JOINT Spine
		{
			OFFSET 0.028270 2.035590 -0.193380
			CHANNELS 3 Zrotation Yrotation Xrotation
			JOINT Spine1
			{
				OFFSET 0.056720 2.048850 -0.042750
				CHANNELS 3 Zrotation Yrotation Xrotation
				JOINT Neck
				{
					OFFSET 0.000000 0.000000 0.000000
					CHANNELS 3 Zrotation Yrotation Xrotation
					JOINT Neck1
					{
						OFFSET -0.054170 1.746240 0.172020
						CHANNELS 3 Zrotation Yrotation Xrotation
						JOINT Head
						{
							OFFSET 0.104070 1.761360 -0.123970
							CHANNELS 3 Zrotation Yrotation Xrotation
							End Site
							{
								OFFSET 0.000000 0.000000 0.000000
							}
						}
					}
				}
				JOINT LeftShoulder
				{
					OFFSET 0.000000 0.000000 0.000000
					CHANNELS 3 Zrotation Yrotation Xrotation
					JOINT LeftArm
					{
						OFFSET 3.362410 1.200890 -0.311210
						CHANNELS 3 Zrotation Yrotation Xrotation
						JOINT LeftForeArm
						{
							OFFSET 4.983000 -0.000000 -0.000000
							CHANNELS 3 Zrotation Yrotation Xrotation
							JOINT LeftHand
							{
								OFFSET 3.483560 -0.000000 -0.000000
								CHANNELS 3 Zrotation Yrotation Xrotation
								JOINT LeftFingerBase
								{
									OFFSET 0.000000 0.000000 0.000000
									CHANNELS 3 Zrotation Yrotation Xrotation
									JOINT LeftHandIndex1
									{
										OFFSET 0.715260 -0.000000 -0.000000
										CHANNELS 3 Zrotation Yrotation Xrotation
										End Site
										{
											OFFSET 0.000000 0.000000 0.000000
										}
									}
								}
								JOINT LThumb
								{
									OFFSET 0.000000 0.000000 0.000000
									CHANNELS 3 Zrotation Yrotation Xrotation
									End Site
									{
										OFFSET 0.000000 0.000000 0.000000
									}
								}
							}
						}
					}
				}
				JOINT RightShoulder
				{
					OFFSET 0.000000 0.000000 0.000000
					CHANNELS 3 Zrotation Yrotation Xrotation
					JOINT RightArm
					{
						OFFSET -3.136600 1.374050 -0.404650
						CHANNELS 3 Zrotation Yrotation Xrotation
						JOINT RightForeArm
						{
							OFFSET -5.241900 -0.000000 -0.000000
							CHANNELS 3 Zrotation Yrotation Xrotation
							JOINT RightHand
							{
								OFFSET -3.444170 -0.000000 -0.000000
								CHANNELS 3 Zrotation Yrotation Xrotation
								JOINT RightFingerBase
								{
									OFFSET 0.000000 0.000000 0.000000
									CHANNELS 3 Zrotation Yrotation Xrotation
									JOINT RightHandIndex1
									{
										OFFSET -0.622530 -0.000000 -0.000000
										CHANNELS 3 Zrotation Yrotation Xrotation
										End Site
										{
											OFFSET 0.000000 0.000000 0.000000
										}
									}
								}
								JOINT RThumb
								{
									OFFSET 0.000000 0.000000 0.000000
									CHANNELS 3 Zrotation Yrotation Xrotation
									End Site
									{
										OFFSET 0.000000 0.000000 0.000000
									}
								}
							}
						}
					}
				}
			}
		}
	}
}
}
MOTION
Frames: 18
Frame Time: 0.008333
14.632396 17.291845 1.859537 -52.279626 -88.402065 82.929468 1.544369 -2.291047 4.801202 -0.189220 -2.280645 -1.279468 -4.842180 -2.248792 2.390197 7.783941 -16.763877 -10.123691 -1.238993 -0.034627 -0.951344 0.000000 0.000000 0.000000 5.245830 14.721611 2.568615 -36.883093 8.436455 24.842377 -0.348832 -84.809379 0.014186 -10.605627 2.307814 -0.208775 0.044251 0.065054 0.000000 0.000000 0.000000 0.000000 0.000000 0.000000 0.000000 7.640857 -12.693056 1.459111 34.174184 -0.050654 14.176166 0.357331 84.071517 0.027673 3.107917 13.130945 0.364049 0.035947 -0.342035 0.000000 0.000000 0.000000 0.000000 0.000000 0.000000 0.000000 
14.459689 16.998593 1.829047 -46.143625 -88.413132 76.662043 1.330928 -2.368161 4.495952 -0.284073 -2.369513 -1.365542 -5.076371 -2.330316 2.393923 8.319945 -16.669925 -10.202465 -1.399257 -0.047153 -0.960109 0.000000 0.000000 0.000000 4.890082 14.732068 2.528178 -38.096951 8.438767 23.258307 -0.403857 -84.151411 0.013716 -10.017193 2.424403 -0.206757 0.027690 0.068304 0.000000 0.000000 0.000000 0.000000 0.000000 0.000000 0.000000 8.621984 -12.598501 1.356360 35.733893 -0.339716 12.485496 0.410596 83.170565 0.026225 2.238288 12.627108 0.249340 0.054125 -0.334761 0.000000 0.000000 0.000000 0.000000 0.000000 0.000000 0.000000 
14.297697 16.715071 1.796140 -39.522935 -88.414423 70.027003 1.098825 -2.436105 4.195265 -0.377616 -2.447078 -1.450054 -5.291352 -2.401524 2.388060 8.790737 -16.560539 -10.235716 -1.544092 -0.059009 -0.958839 0.000000 0.000000 0.000000 4.624407 14.592453 2.484369 -39.383006 8.418464 21.724248 -0.469527 -83.342028 0.013080 -9.324911 2.557808 -0.202536 0.010575 0.072272 0.000000 0.000000 0.000000 0.000000 0.000000 0.000000 0.000000 9.460797 -12.507299 1.260439 37.471016 -0.460882 10.846535 0.472027 82.093867 0.024132 1.213933 12.110428 0.125432 0.073918 -0.328214 0.000000 0.000000 0.000000 0.000000 0.000000 0.000000 0.000000 
14.146794 16.446721 1.761675 -33.224243 -88.376086 63.817667 0.886727 -2.495119 3.913618 -0.461408 -2.513198 -1.530709 -5.487919 -2.462696 2.368537 9.188265 -16.414800 -10.222601 -1.676858 -0.070435 -0.947616 0.000000 0.000000 0.000000 4.432215 14.297939 2.440558 -40.729187 8.380609 20.278448 -0.546985 -82.361820 0.012225 -8.544537 2.697682 -0.195116 -0.006654 0.076706 0.000000 0.000000 0.000000 0.000000 0.000000 0.000000 0.000000 10.166030 -12.404301 1.176260 39.348316 -0.390708 9.311410 0.542659 80.818838 0.021436 0.079648 11.635787 -0.000279 0.094143 -0.322717 0.000000 0.000000 0.000000 0.000000 0.000000 0.000000 0.000000 
14.006846 16.198517 1.726635 -27.892839 -88.283489 58.659581 0.722975 -2.547917 3.667297 -0.530249 -2.570971 -1.605388 -5.666946 -2.517318 2.330116 9.507025 -16.204897 -10.161264 -1.801931 -0.081777 -0.926185 0.000000 0.000000 0.000000 4.290885 13.847311 2.401702 -42.111063 8.332753 18.953430 -0.636538 -81.199203 0.011086 -7.702441 2.837320 -0.184304 -0.023470 0.081198 0.000000 0.000000 0.000000 0.000000 0.000000 0.000000 0.000000 10.753460 -12.265537 1.108053 41.313978 -0.127969 7.927274 0.622607 79.333648 0.018273 -1.108999 11.249890 -0.122501 0.113501 -0.318356 0.000000 0.000000 0.000000 0.000000 0.000000 0.000000 0.000000 
13.877285 15.974596 1.691947 -23.829841 -88.147662 54.825873 0.613198 -2.596207 3.475542 -0.584379 -2.622608 -1.670871 -5.828548 -2.567761 2.269818 9.746167 -15.904293 -10.052111 -1.923175 -0.093291 -0.894917 0.000000 0.000000 0.000000 4.179598 13.259608 2.373620 -43.499274 8.261807 17.785079 -0.738478 -79.840871 0.009673 -6.832693 2.972375 -0.170604 -0.039343 0.085295 0.000000 0.000000 0.000000 0.000000 0.000000 0.000000 0.000000 11.244640 -12.065762 1.058462 43.304539 0.320184 6.737015 0.711175 77.633554 0.014851 -2.292863 10.990026 -0.238637 0.130754 -0.315025 0.000000 0.000000 0.000000 0.000000 0.000000 0.000000 0.000000 
13.757169 15.778105 1.658367 -21.065163 -87.998152 52.314307 0.548438 -2.638309 3.356675 -0.627234 -2.666648 -1.724425 -5.973180 -2.612597 2.184254 9.907528 -15.485444 -9.894681 -2.043851 -0.105196 -0.853829 0.000000 0.000000 0.000000 4.077090 12.558513 2.362332 -44.857640 8.158897 16.804346 -0.852204 -78.285621 0.008043 -5.979401 3.101946 -0.155124 -0.053682 0.088494 0.000000 0.000000 0.000000 0.000000 0.000000 0.000000 0.000000 11.660196 -11.773296 1.029499 45.259683 0.928990 5.768931 0.806818 75.723842 0.011445 -3.411873 10.868308 -0.346895 0.144892 -0.312379 0.000000 0.000000 0.000000 0.000000 0.000000 0.000000 0.000000 
13.645111 15.611020 1.626439 -19.482906 -87.868233 50.977211 0.513656 -2.671030 3.325108 -0.662991 -2.699675 -1.763681 -6.101130 -2.648327 2.072203 9.996003 -14.927279 -9.689845 -2.165605 -0.117557 -0.803187 0.000000 0.000000 0.000000 3.965610 11.776615 2.373083 -46.150611 8.009426 16.041506 -0.976760 -76.540728 0.006322 -5.193693 3.226024 -0.139464 -0.065911 0.090388 0.000000 0.000000 0.000000 0.000000 0.000000 0.000000 0.000000 12.017387 -11.359823 1.022103 47.124196 1.667743 5.038555 0.907497 73.617299 0.008309 -4.408846 10.875964 -0.445777 0.155211 -0.309958 0.000000 0.000000 0.000000 0.000000 0.000000 0.000000 0.000000 
13.539355 15.474042 1.596462 -18.931444 -87.783531 50.637205 0.494936 -2.691388 3.388191 -0.694937 -2.718343 -1.787107 -6.212433 -2.671460 1.935360 10.019076 -14.218528 -9.440369 -2.288438 -0.130283 -0.743632 0.000000 0.000000 0.000000 3.832360 10.951643 2.409556 -47.346024 7.796199 15.525210 -1.110952 -74.624266 0.004680 -4.529097 3.342200 -0.125530 -0.075554 0.090769 0.000000 0.000000 0.000000 0.000000 0.000000 0.000000 0.000000 12.329007 -10.805405 1.036004 48.853226 2.503263 4.546628 1.011037 71.335679 0.005669 -5.230172 10.988508 -0.532280 0.161329 -0.307309 0.000000 0.000000 0.000000 0.000000 0.000000 0.000000 0.000000 
13.438269 15.366681 1.568605 -19.294675 -87.756308 51.156949 0.481400 -2.697796 3.543821 -0.725013 -2.720814 -1.794328 -6.306393 -2.679957 1.779140 9.985734 -13.358444 -9.151678 -2.410557 -0.143124 -0.676303 0.000000 0.000000 0.000000 3.673490 10.127669 2.473253 -48.422679 7.494303 15.284348 -1.253899 -72.561484 0.003308 -4.034757 3.443530 -0.114819 -0.082349 0.089698 0.000000 0.000000 0.000000 0.000000 0.000000 0.000000 0.000000 12.600682 -10.100276 1.069265 50.416018 3.400155 4.275543 1.115486 68.911744 0.003722 -5.818771 11.175316 -0.600503 0.163042 -0.304114 0.000000 0.000000 0.000000 0.000000 0.000000 0.000000 0.000000 
13.339763 15.287348 1.542765 -20.466592 -87.787321 52.418560 0.466006 -2.690905 3.784609 -0.754239 -2.707741 -1.787431 -6.383243 -2.674447 1.604055 9.905528 -12.369956 -8.826539 -2.529884 -0.155892 -0.601269 0.000000 0.000000 0.000000 3.471127 9.296324 2.561635 -49.351151 7.162904 15.301650 -1.400897 -70.439726 0.002370 -3.759879 3.519169 -0.109130 -0.085898 0.087236 0.000000 0.000000 0.000000 0.000000 0.000000 0.000000 0.000000 12.836165 -9.260502 1.122758 51.783876 4.337648 4.227385 1.219504 66.385545 0.002459 -6.176707 11.385184 -0.647943 0.161182 -0.300062 0.000000 0.000000 0.000000 0.000000 0.000000 0.000000 0.000000 
13.242153 15.233333 1.518853 -22.381750 -87.866457 54.356703 0.443709 -2.670991 4.089662 -0.782415 -2.679658 -1.767502 -6.440929 -2.655011 1.425194 9.790465 -11.273776 -8.478492 -2.641982 -0.168068 -0.521632 0.000000 0.000000 0.000000 3.246408 8.527659 2.671282 -50.142353 6.738645 15.609415 -1.552886 -68.278940 0.001945 -3.716373 3.550716 -0.108956 -0.086702 0.083984 0.000000 0.000000 0.000000 0.000000 0.000000 0.000000 0.000000 13.031701 -8.300045 1.189885 52.957194 5.281453 4.348229 1.322351 63.812313 0.002030 -6.243807 11.600867 -0.666194 0.155641 -0.295267 0.000000 0.000000 0.000000 0.000000 0.000000 0.000000 0.000000 
13.143581 15.201319 1.496612 -24.953889 -87.978623 56.894190 0.412510 -2.639522 4.434345 -0.809170 -2.638560 -1.738491 -6.479728 -2.623383 1.249676 9.651734 -10.105965 -8.116154 -2.743791 -0.179374 -0.438818 0.000000 0.000000 0.000000 3.005569 7.833333 2.795416 -50.798367 6.249559 16.186593 -1.706438 -66.157080 0.002035 -3.902014 3.523856 -0.113890 -0.085142 0.080330 0.000000 0.000000 0.000000 0.000000 0.000000 0.000000 0.000000 13.185169 -7.250573 1.267006 53.939544 6.204985 4.600021 1.423614 61.255976 0.002368 -6.024888 11.787522 -0.652353 0.147198 -0.289777 0.000000 0.000000 0.000000 0.000000 0.000000 0.000000 0.000000 
13.042569 15.187808 1.475710 -28.054547 -88.108867 59.913791 0.370251 -2.598031 4.793481 -0.834339 -2.586500 -1.704964 -6.500355 -2.581350 1.082141 9.500212 -8.930724 -7.748721 -2.831929 -0.189540 -0.354209 0.000000 0.000000 0.000000 2.752067 7.185248 2.922743 -51.329581 5.781175 16.964308 -1.854730 -64.178970 0.002585 -4.299588 3.430508 -0.122730 -0.081402 0.076485 0.000000 0.000000 0.000000 0.000000 0.000000 0.000000 0.000000 13.295312 -6.176643 1.353167 54.736154 7.120195 4.983587 1.524554 58.760024 0.003299 -5.590651 11.928959 -0.612211 0.137338 -0.283728 0.000000 0.000000 0.000000 0.000000 0.000000 0.000000 0.000000 
12.937822 15.189101 1.455835 -31.502539 -88.244990 63.257319 0.314705 -2.546661 5.135859 -0.857965 -2.524299 -1.671052 -6.503973 -2.529184 0.933246 9.345902 -7.775103 -7.388381 -2.904340 -0.198350 -0.270355 0.000000 0.000000 0.000000 2.515259 6.629402 3.046689 -51.764944 5.300186 17.926956 -1.996269 -62.372446 0.003437 -4.850556 3.273068 -0.132570 -0.076451 0.072849 0.000000 0.000000 0.000000 0.000000 0.000000 0.000000 0.000000 13.359313 -5.102282 1.439658 55.380428 7.984721 5.416400 1.623365 56.402325 0.004709 -4.949009 11.999625 -0.545168 0.126334 -0.277292 0.000000 0.000000 0.000000 0.000000 0.000000 0.000000 0.000000 
12.828494 15.201903 1.436719 -35.004245 -88.383929 66.650370 0.239854 -2.485826 5.436683 -0.881352 -2.452941 -1.641257 -6.492370 -2.467492 0.806398 9.196245 -6.690741 -7.043995 -2.959571 -0.205702 -0.188799 0.000000 0.000000 0.000000 2.309539 6.149318 3.157614 -52.129434 4.860141 19.000723 -2.124889 -60.798939 0.004437 -5.498901 3.068583 -0.141408 -0.070677 0.069459 0.000000 0.000000 0.000000 0.000000 0.000000 0.000000 0.000000 13.377781 -4.080856 1.523353 55.896948 8.803912 5.874724 1.719467 54.223373 0.006372 -4.183439 11.986720 -0.460819 0.115282 -0.270619 0.000000 0.000000 0.000000 0.000000 0.000000 0.000000 0.000000 
12.713936 15.223447 1.418207 -38.156533 -88.531320 69.709722 0.135732 -2.415933 5.675609 -0.906983 -2.373416 -1.619112 -6.467384 -2.396878 0.704445 9.056563 -5.715733 -6.723562 -2.997298 -0.211572 -0.111152 0.000000 0.000000 0.000000 2.151293 5.739551 3.248614 -52.449788 4.486428 20.122388 -2.236034 -59.486451 0.005430 -6.183924 2.845822 -0.147845 -0.064486 0.066291 0.000000 0.000000 0.000000 0.000000 0.000000 0.000000 0.000000 13.353275 -3.152293 1.600498 56.314388 9.578906 6.325428 1.811219 52.255771 0.008087 -3.365496 11.879327 -0.368264 0.104902 -0.263856 0.000000 0.000000 0.000000 0.000000 0.000000 0.000000 0.000000 
12.593808 15.251572 1.400394 -40.468588 -88.698330 71.962215 -0.007483 -2.337635 5.838048 -0.937685 -2.287066 -1.608119 -6.431108 -2.318520 0.625592 8.928678 -4.864936 -6.429768 -3.018840 -0.216103 -0.037833 0.000000 0.000000 0.000000 2.052073 5.389158 3.316400 -52.750068 4.200955 21.234637 -2.326363 -58.443424 0.006282 -6.850360 2.640003 -0.152181 -0.058213 0.063261 -0.000000 0.000000 0.000000 0.000000 0.000000 0.000000 0.000000 13.289078 -2.332514 1.668440 56.661273 10.293971 6.723202 1.896087 50.528803 0.009704 -2.544743 11.665525 -0.274802 0.095508 -0.257138 0.000000 0.000000 0.000000 0.000000 0.000000 0.000000 0.000000 
